<svg id="Layer_1" data-name="Layer 1" xmlns="http://www.w3.org/2000/svg" viewBox="0 0 400 300" width="406" height="306" class="illustration styles_illustrationTablet__1DWOa"><polygon points="170.36 204.81 184.04 252.84 119.27 252.84 123.99 204.75 170.36 204.81" fill="#24285b"></polygon><path d="M154,109.56S190,89,233.18,90.16L247,93.6l-4.5,13.51-65.33,24.67Z" fill="#f4a28c"></path><path d="M159.74,176.69s-2,19.52,37.84,21.94a216.83,216.83,0,0,0,72.76-8.4l-69.12-31.55Z" fill="#68e1fd"></path><path d="M159.74,176.69s-2,19.52,37.84,21.94a216.83,216.83,0,0,0,72.76-8.4l-69.12-31.55Z" opacity="0.18"></path><polygon points="211.42 60.15 220.11 90.81 202.87 94.39 203.47 70.64 211.42 60.15" fill="#f4a28c"></polygon><path d="M203.12,75.84a11.56,11.56,0,0,0,5.25-4s.44,5.82-5.24,12.29Z" fill="#ce8172" opacity="0.31"></path><path d="M193.57,61s.86,9.69,3.59,15.75a4.88,4.88,0,0,0,6.49,2.42c3-1.42,6.72-4.22,6.89-9.46l1.37-8.88s.67-5.59-5.42-8.51S192.74,55.17,193.57,61Z" fill="#f4a28c"></path><path d="M196,61a39,39,0,0,0,8.71-2.25,8.09,8.09,0,0,0,1.55,8.76,6.61,6.61,0,0,0,8.32,1.2l-2.35-12.27a9.89,9.89,0,0,0-6.48-7.82,35.46,35.46,0,0,0-4.47-1.27c-3.79-.8-8.56,2.49-12.16.66a2.34,2.34,0,0,0-3.39,2.16C185.85,54,187.57,59.8,193,61A9.27,9.27,0,0,0,196,61Z" fill="#24285b"></path><path d="M205.2,67.43s-.59-3.7,2.23-3.9,3.7,5.13,0,6.29Z" fill="#f4a28c"></path><path d="M194.42,67.12l-2,4.16a1.57,1.57,0,0,0,1.39,2.24l3.78,0Z" fill="#f4a28c"></path><polygon points="142.15 77.32 138.17 108.94 155.75 109.89 151.59 86.5 142.15 77.32" fill="#f4a28c"></polygon><path d="M152.72,91.58a11.58,11.58,0,0,1-5.8-3.21s.44,5.82,7,11.36Z" fill="#ce8172" opacity="0.31"></path><path d="M159.94,75.51s.6,9.71-1.19,16.11A4.88,4.88,0,0,1,152.7,95c-3.21-1-7.28-3.17-8.23-8.33l-2.7-8.56s-1.5-5.43,4.08-9.23S159.87,69.58,159.94,75.51Z" fill="#f4a28c"></path><path d="M149.4,83.58s0-3.74-2.8-3.52-2.88,5.62.93,6.22Z" fill="#f4a28c"></path><path d="M160,81.65l2.62,3.81a1.56,1.56,0,0,1-1,2.42l-3.73.61Z" fill="#f4a28c"></path><path d="M197.44,94.4l22.64-4.71S254.9,87,273.4,109.42c20.84,25.2-12.89,110.74-12.89,110.74l-59.29,6.42S120.77,128.23,197.44,94.4Z" fill="#68e1fd"></path><path d="M155.75,109.88s43.7,11.94,35,42.09c-6.33,21.83-17.77,19-19,36l-1.38,16.8L124,204.75s-.41-26-4.72-41.81S108.13,100.72,155.75,109.88Z" fill="#68e1fd"></path><path d="M146.6,80.06s10.28,29.22.66,34.21-26.24,3-27.84-9.28,10.51-14.79,11.45-31.88,33.71-14.28,33.58-4.44S146.6,80.06,146.6,80.06Z" fill="#ffd200"></path><path d="M229.39,108.16s-12.5,21.29,9.09,41,24.86,45.25,10.2,47.44-18.19-18.61-29.33-17-9.54,9.47-4.76,12.34a10.22,10.22,0,0,1,3.34,3.7,4.91,4.91,0,0,0,8.52-.05h0s22.4,9.08,17.84,26.36l16.22-1.76,5.65-15.89,17-25.44-1.37-21.51Z" opacity="0.09"></path><path d="M228.49,162.56l.5-8.24-15.25-.92-.49,8.24a13.38,13.38,0,0,0,3.22,9.55l1.25,1.44a5.38,5.38,0,0,1,1.29,3.84l-.4,6.59a4.35,4.35,0,0,1-1.94,3.37l-.71.47a.71.71,0,0,0,.35,1.31l6.11.37a.71.71,0,0,0,.48-1.28l-.79-.61a4.35,4.35,0,0,1-1.69-3.71l.38-6.22a5.36,5.36,0,0,1,1.74-3.65l1.6-1.45A13.41,13.41,0,0,0,228.49,162.56Z" fill="#fff" opacity="0.57"></path><path d="M214.76,160.74s.49-.15,4.06.66a18.77,18.77,0,0,0,7.94-.43s.14,5.91-3.74,9.58a3.35,3.35,0,0,1-4.56,0C216.69,169,214.59,166,214.76,160.74Z" fill="#ffd200"></path><path d="M229.27,105.94a15.88,15.88,0,0,1,22.51-14.6c17.44,8,43.6,25.91,46.62,62.63,4.57,55.63-39.24,64-74.71,32.79l9.41-11.83s23.91,16.93,38.43,1.88C283.65,164.25,229.72,138.66,229.27,105.94Z" fill="#68e1fd"></path><path d="M231.32,177.33s-8.72-6.77-14.36-5-5.75,17.31,8.6,12.21Z" fill="#f4a28c"></path><path d="M229.27,105.94a15.88,15.88,0,0,1,22.51-14.6c17.44,8,43.6,25.91,46.62,62.63,4.57,55.63-39.24,64-74.71,32.79l9.41-11.83s23.91,16.93,38.43,1.88C283.65,164.25,229.72,138.66,229.27,105.94Z" fill="#fff" opacity="0.44"></path><path d="M191.56,148.13l-12.24,5.27-13.53,28.46L145.4,200.19l-23.06-19.94,1.65,24.5,46.37.06,1-16A24.29,24.29,0,0,1,177,174.65l5.18-6.09C188.23,161.47,191.56,148.13,191.56,148.13Z" opacity="0.09"></path><path d="M184,145.52l-.84-8.21-15.19,1.55.84,8.22a13.39,13.39,0,0,0,4.73,8.9L175,157.2a5.43,5.43,0,0,1,1.9,3.57l.67,6.58a4.35,4.35,0,0,1-1.37,3.63l-.63.58a.72.72,0,0,0,.56,1.24l6.09-.63a.71.71,0,0,0,.26-1.34l-.87-.47a4.33,4.33,0,0,1-2.27-3.39l-.64-6.2a5.37,5.37,0,0,1,1.14-3.88l1.34-1.69A13.41,13.41,0,0,0,184,145.52Z" fill="#fff" opacity="0.57"></path><path d="M170.13,145.94s.46-.23,4.11,0a18.8,18.8,0,0,0,7.77-1.71s1.09,5.81-2.15,10.06a3.35,3.35,0,0,1-4.5.76C173.36,153.75,170.8,151.11,170.13,145.94Z" fill="#ffd200"></path><path d="M231.32,89.6s13.51-5.35,19.67-1.23S241.57,103.38,231.32,89.6Z" fill="#f4a28c"></path><path d="M137.56,130.7a11.42,11.42,0,0,0-21.6.1c-3.2,9.36-4.58,22.3,1.52,37.87,13,33.23,23.94,43.51,36.47,41.8s24.17-45.68,24.17-45.68,8.72-3.13,7.62-9.73-13.91,0-13.91,0-12.69,34.51-21,34.51C144.58,189.57,145.73,153.45,137.56,130.7Z" fill="#f4a28c"></path><polygon points="201.22 226.58 200.16 252.84 261.21 252.84 260.51 220.16 201.22 226.58" fill="#24285b"></polygon></svg>