<svg id="Layer_1" data-name="Layer 1" xmlns="http://www.w3.org/2000/svg" xmlns:xlink="http://www.w3.org/1999/xlink" viewBox="0 0 400 300" width="406" height="306" class="illustration styles_illustrationTablet__1DWOa"><defs><linearGradient id="linear-gradient" x1="75.83" y1="228.72" x2="109.82" y2="175.57" gradientUnits="userSpaceOnUse"><stop offset="0" stop-opacity="0"></stop><stop offset="1" stop-color="#c1272d"></stop></linearGradient><linearGradient id="linear-gradient-2" x1="193.13" y1="237.67" x2="220.27" y2="195.23" xlink:href="#linear-gradient"></linearGradient><linearGradient id="linear-gradient-3" x1="145.54" y1="276.84" x2="175.83" y2="229.48" xlink:href="#linear-gradient"></linearGradient></defs><title>#31-40</title><ellipse cx="195.88" cy="206.06" rx="154.17" ry="73.94" fill="#f2696a"></ellipse><path d="M71.49,242.06l62.37-32.8L66,196.27,41.7,210.79C62.41,240.07,67.86,247.2,71.49,242.06Z" opacity="0.68" fill="url(#linear-gradient)"></path><path d="M211.15,263.32l46.55-29.53-67.39-39.26-48.43,26.19C148.19,224.57,204.94,259.32,211.15,263.32Z" opacity="0.68" fill="url(#linear-gradient-2)"></path><path d="M167.56,165.11a108,108,0,0,0,5.49,35.15l1.12-1.22c-.17-.53-.33-1.07-.5-1.61a1.33,1.33,0,0,1-.49-1.57A106.84,106.84,0,0,1,169,169a166.92,166.92,0,0,0,6.35,24.34l.13-.16a1.19,1.19,0,0,1,.76-.44l.31-.26a166.48,166.48,0,0,1-5.16-18.66.69.69,0,0,0,.1-.55c-2-8.8-1.74-18.16-1.35-27.13a190.25,190.25,0,0,1,2.95-26,192.79,192.79,0,0,1,16.18-49.26c.4-.82-.83-1.55-1.23-.72a192.79,192.79,0,0,0-19.35,76.67c-.2,4.91-.33,9.91-.09,14.88a118.81,118.81,0,0,1,.77-79.6c.32-.86-1.06-1.24-1.38-.38a120.08,120.08,0,0,0-1.86,77,94.49,94.49,0,0,1-17-39.44c-3-17.1-1.32-34.58.33-51.74.09-.91-1.34-.91-1.43,0-1.7,17.74-3.41,35.81,0,53.46a96.12,96.12,0,0,0,19.11,41.4.65.65,0,0,0,.26.2c.22.62.45,1.23.67,1.85A.66.66,0,0,0,167.56,165.11Z" fill="#29abe2"></path><path d="M195.07,95.2c-12.76,19.53-24.92,41-25.12,64.79a.65.65,0,0,0-.08.36c0,.33.05.66.07,1,0,.72,0,1.45.06,2.17a.72.72,0,0,0-.69.88q.63,2.68,1.37,5.32a196.23,196.23,0,0,0,5.92,22.73q.59-.51,1.21-1c-.92-2.85-1.79-5.71-2.58-8.6q1.65,4,3.59,7.89c.4-.26.82-.51,1.25-.74a118.7,118.7,0,0,1-7.35-18.44,81.82,81.82,0,0,1-1.36-10.21c-.25-24.06,12.05-45.74,24.93-65.45C196.81,95.15,195.57,94.43,195.07,95.2Z" fill="#29abe2"></path><path d="M219.75,33.78c-13.32-2-23.57,12.93-21.3,25.75.32,1.83,3.09,11.47,5.83,14.79l-.11.1a3,3,0,0,0-3.39,1.76c-.71,1.75.66,3.53,2.31,4a3.21,3.21,0,0,0,3.79-4.73,32.67,32.67,0,0,0,23.72-10.57C240.12,54.31,236.29,36.32,219.75,33.78Z" fill="#b878ea"></path><path d="M202.85,59.78a33.63,33.63,0,0,1,5.77-15.1c4.6-6.55,11.44-10,18.92-8.1a20.38,20.38,0,0,0-7.79-2.81c-13.32-2-23.57,12.93-21.3,25.75a63.24,63.24,0,0,0,4,11.68A44.36,44.36,0,0,1,202.85,59.78Z" fill="#8b48cc"></path><path d="M177.69,15.45c-13.42,1.24-19.74,18.26-14.43,30.14C164,47.29,169,56,172.49,58.53l-.09.12a3,3,0,0,0-2.87,2.53c-.27,1.88,1.5,3.26,3.22,3.34A3.21,3.21,0,0,0,175.29,59a32.67,32.67,0,0,0,20.46-16C202.43,30.45,194.35,13.91,177.69,15.45Z" fill="#ffc931"></path><path d="M167.59,44.78a33.63,33.63,0,0,1,1.94-16c2.88-7.47,8.67-12.52,16.4-12.44a20.38,20.38,0,0,0-8.24-.84c-13.42,1.24-19.74,18.26-14.43,30.14A63.24,63.24,0,0,0,169.94,56,44.36,44.36,0,0,1,167.59,44.78Z" fill="#ffa133"></path><path d="M189.23,37.77C175.77,37,166.95,52.82,170.4,65.38c.49,1.79,4.13,11.13,7.17,14.18l-.1.11a3,3,0,0,0-3.22,2.07c-.55,1.81,1,3.45,2.67,3.79a3.21,3.21,0,0,0,3.34-5.06A32.67,32.67,0,0,0,202.9,67.75C211.41,56.34,205.93,38.77,189.23,37.77Z" fill="#855af1"></path><path d="M174.81,65.23a33.63,33.63,0,0,1,4.35-15.56c4-6.94,10.46-11.06,18.09-9.81a20.38,20.38,0,0,0-8-2.08C175.77,37,166.95,52.82,170.4,65.38a63.24,63.24,0,0,0,5,11.26A44.36,44.36,0,0,1,174.81,65.23Z" fill="#8b48cc"></path><path d="M152.23,31.3c-13.42,1.24-19.74,18.26-14.43,30.14.76,1.7,5.77,10.38,9.24,12.93l-.09.12A3,3,0,0,0,144.08,77c-.27,1.88,1.5,3.26,3.22,3.34a3.21,3.21,0,0,0,2.53-5.51,32.67,32.67,0,0,0,20.46-16C177,46.29,168.9,29.76,152.23,31.3Z" fill="#ff8597"></path><path d="M142.14,60.62a33.63,33.63,0,0,1,1.94-16c2.88-7.47,8.67-12.52,16.4-12.44a20.38,20.38,0,0,0-8.24-.84c-13.42,1.24-19.74,18.26-14.43,30.14a63.24,63.24,0,0,0,6.68,10.37A44.36,44.36,0,0,1,142.14,60.62Z" fill="#ed6b84"></path><path d="M211.15,69.38c-12.78-4.29-25.43,8.73-25.38,21.74,0,1.86,1.09,11.82,3.22,15.56l-.13.08a3,3,0,0,0-3.64,1.16c-1,1.61.05,3.59,1.59,4.35a3.21,3.21,0,0,0,4.54-4,32.67,32.67,0,0,0,25.18-6.37C227.72,93.1,227,74.71,211.15,69.38Z" fill="#ea5343"></path><path d="M190.07,92.13a33.63,33.63,0,0,1,8.26-13.89c5.65-5.67,13-7.95,20-4.76a20.38,20.38,0,0,0-7.2-4.1c-12.78-4.29-25.43,8.73-25.38,21.74a63.24,63.24,0,0,0,1.92,12.19A44.36,44.36,0,0,1,190.07,92.13Z" fill="#db4237"></path><path d="M168.73,61.51C155.31,62.75,149,79.76,154.3,91.65c.76,1.7,5.77,10.38,9.24,12.93l-.09.12a3,3,0,0,0-2.87,2.53c-.27,1.88,1.5,3.26,3.22,3.34a3.21,3.21,0,0,0,2.53-5.51,32.67,32.67,0,0,0,20.46-16C193.47,76.5,185.39,60,168.73,61.51Z" fill="#9edc33"></path><path d="M158.64,90.83a33.63,33.63,0,0,1,1.94-16c2.88-7.47,8.67-12.52,16.4-12.44a20.38,20.38,0,0,0-8.24-.84C155.31,62.75,149,79.76,154.3,91.65A63.24,63.24,0,0,0,161,102,44.36,44.36,0,0,1,158.64,90.83Z" fill="#95ce29"></path><polyline points="60.31 168.73 60.31 200.4 138.75 200.4 138.75 168.73" fill="#68e1fd"></polyline><path d="M99.53,182.06c-12.58,0-23.77,2.77-30.95,7.08v22.51a43.26,43.26,0,0,0,9.67,4.14V189.25a1.7,1.7,0,1,1,3.38,0v27.46a72.19,72.19,0,0,0,9.67,1.61V189.91a1.7,1.7,0,1,1,3.38,0v28.68c1.59.09,3.2.14,4.84.14s3.25-.05,4.84-.14V191.22a1.7,1.7,0,1,1,3.38,0v27.1a72.19,72.19,0,0,0,9.67-1.61v-27a1.7,1.7,0,1,1,3.38,0v26.1a43.26,43.26,0,0,0,9.67-4.14V189.14C123.3,184.83,112.11,182.06,99.53,182.06Z" fill="#68e1fd"></path><path d="M60.31,200.4c0,3.22,1.78,6.24,4.89,8.86V191.53C62.08,194.16,60.31,197.18,60.31,200.4Z" fill="#68e1fd"></path><path d="M138.75,200.4c0-3.22-1.78-6.24-4.89-8.86v17.73C137,206.63,138.75,203.61,138.75,200.4Z" fill="#68e1fd"></path><path d="M65.19,191.53v17.73a25.89,25.89,0,0,0,3.38,2.39V189.14A25.89,25.89,0,0,0,65.19,191.53Z" fill="#68e1fd"></path><path d="M78.25,189.25v26.54q1.64.5,3.38.91V189.25A1.7,1.7,0,1,0,78.25,189.25Z" fill="#68e1fd"></path><path d="M91.31,189.91v28.41q1.67.17,3.38.26V189.91A1.7,1.7,0,1,0,91.31,189.91Z" fill="#68e1fd"></path><path d="M104.37,191.22v27.37q1.72-.1,3.38-.26v-27.1A1.7,1.7,0,1,0,104.37,191.22Z" fill="#68e1fd"></path><path d="M117.42,189.69v27q1.74-.42,3.38-.91v-26.1A1.7,1.7,0,1,0,117.42,189.69Z" fill="#68e1fd"></path><path d="M130.48,189.14v22.51a25.88,25.88,0,0,0,3.38-2.39V191.53A25.89,25.89,0,0,0,130.48,189.14Z" fill="#68e1fd"></path><path d="M65.19,191.53v17.73a25.89,25.89,0,0,0,3.38,2.39V189.14A25.89,25.89,0,0,0,65.19,191.53Z" opacity="0.24"></path><path d="M78.25,189.25v26.54q1.64.5,3.38.91V189.25A1.7,1.7,0,1,0,78.25,189.25Z" opacity="0.24"></path><path d="M91.31,189.91v28.41q1.67.17,3.38.26V189.91A1.7,1.7,0,1,0,91.31,189.91Z" opacity="0.24"></path><path d="M104.37,191.22v27.37q1.72-.1,3.38-.26v-27.1A1.7,1.7,0,1,0,104.37,191.22Z" opacity="0.24"></path><path d="M117.42,189.69v27q1.74-.42,3.38-.91v-26.1A1.7,1.7,0,1,0,117.42,189.69Z" opacity="0.24"></path><path d="M130.48,189.14v22.51a25.88,25.88,0,0,0,3.38-2.39V191.53A25.89,25.89,0,0,0,130.48,189.14Z" opacity="0.24"></path><path d="M60.31,168.73v12.1s7.16,13.95,39.22,13.95,39.22-13.95,39.22-13.95v-12.1" fill="#68e1fd"></path><path d="M60.31,168.73v12.1s7.16,13.95,39.22,13.95,39.22-13.95,39.22-13.95v-12.1" opacity="0.24"></path><path d="M68.58,183.1a1.7,1.7,0,1,0-3.38,0v8.43a25.89,25.89,0,0,1,3.38-2.39Z" fill="#68e1fd"></path><path d="M133.86,184a1.7,1.7,0,1,0-3.38,0v5.12a25.89,25.89,0,0,1,3.38,2.39Z" fill="#68e1fd"></path><ellipse cx="99.53" cy="168.73" rx="39.22" ry="18.33" fill="#68e1fd"></ellipse><path d="M96.62,162.33s-7.59-18.94-17-21.6S64.08,145,63,147.06s-2.17,16.84,11.21,18.65S96.62,162.33,96.62,162.33Z" fill="#ea5343"></path><path d="M96.38,162.23a31.42,31.42,0,0,0-19-11.92c-4-.69-8.57-.42-11.49,2.86a7.63,7.63,0,0,0-2,4.58c1.49,3.72,4.57,7.15,10.57,8,12.27,1.66,20.87-2.57,22.21-3.27A1,1,0,0,1,96.38,162.23Z" fill="#ad2b21"></path><path d="M100.93,162.92s7.59-18.94,17-21.6,15.54,4.32,16.63,6.34,2.17,16.84-11.21,18.65S100.93,162.92,100.93,162.92Z" fill="#ea5343"></path><path d="M101.17,162.82a31.42,31.42,0,0,1,19-11.92c4-.69,8.57-.42,11.49,2.86a7.63,7.63,0,0,1,2,4.58c-1.49,3.72-4.57,7.15-10.57,8-12.27,1.66-20.87-2.57-22.21-3.27A1,1,0,0,0,101.17,162.82Z" fill="#ad2b21"></path><path d="M92.62,163.9,71.49,180.09l10.39-1.18s3.52,7.3,4,7.11,13.6-21.9,13.6-21.9" fill="#ad2b21"></path><path d="M104.9,163.9,126,180.09l-10.39-1.18s-3.52,7.3-4,7.11S98,164.12,98,164.12" fill="#ad2b21"></path><path d="M90.19,166.1S88,156,96.62,156.42s9.23,6.22,9.43,9.68C106,166.1,94.45,169.2,90.19,166.1Z" fill="#ea5343"></path><path d="M68.58,183.1a1.7,1.7,0,1,0-3.38,0v8.43a25.89,25.89,0,0,1,3.38-2.39Z" opacity="0.24"></path><path d="M133.86,184a1.7,1.7,0,1,0-3.38,0v5.12a25.89,25.89,0,0,1,3.38,2.39Z" opacity="0.24"></path><path d="M186.34,166.93l-.07,34.28,59.1,32.55a12.83,12.83,0,0,0,12.33,0l69.74-38V161.17" fill="#ffd5b2"></path><path d="M291.84,146.9c-.58-.86-2,0-1.41.82,1,1.48,1.32,3.84.08,5.35-1.46,1.77-3.08.18-4.1-1.33a7.37,7.37,0,0,1,.13-8.64c.64-.83-.78-1.64-1.41-.82a9.07,9.07,0,0,0,2.15,12.62c2.1,1.42,3.5,1,4.79-1.27A6.31,6.31,0,0,0,291.84,146.9Z" fill="#1cd42e"></path><path d="M188.27,163.79l71.31-41.17a3.87,3.87,0,0,1,3.85,0l62,35.24a3.87,3.87,0,0,1,0,6.71l-69.62,40.53a8.63,8.63,0,0,1-8.71,0l-58.92-34.59A3.87,3.87,0,0,1,188.27,163.79Z" fill="#7a160f"></path><path d="M301.87,145.75l-91,3.63v17.95a4.53,4.53,0,0,0,2.24,3.91l37.64,22a4.88,4.88,0,0,0,4.9,0l43.85-25.32a4.69,4.69,0,0,0,2.34-4.06Z" fill="#ffd5b2"></path><path d="M281.38,140.83c-.41-.6-1.4,0-1,.58a3.28,3.28,0,0,1,.06,3.75c-1,1.24-2.16.12-2.87-.93a5.16,5.16,0,0,1,.09-6.05c.45-.58-.54-1.15-1-.58a6.35,6.35,0,0,0,1.5,8.84c1.47,1,2.45.67,3.36-.89A4.42,4.42,0,0,0,281.38,140.83Z" fill="#1cd42e"></path><path d="M211.12,148.06l46.74-27a3.55,3.55,0,0,1,3.53,0l39.4,22.38a2.43,2.43,0,0,1,0,4.22L255.39,174.1a4.31,4.31,0,0,1-4.35,0l-39.93-23.44A1.49,1.49,0,0,1,211.12,148.06Z" fill="#7a160f"></path><path d="M321.09,166v18.05s-1.13,4.39-5.22,1.65v-16.5Z" fill="#7a160f"></path><path d="M318.92,169V186.6c1.64-.43,2.17-2.46,2.17-2.46V167.2A5.36,5.36,0,0,1,318.92,169Z" fill="#630704"></path><path d="M309.82,173.29v18.05s-1.13,4.39-5.22,1.65V176.5Z" fill="#7a160f"></path><path d="M307.65,176.3v17.55c1.64-.43,2.17-2.46,2.17-2.46V174.46A5.36,5.36,0,0,1,307.65,176.3Z" fill="#630704"></path><path d="M297.64,179.92V198s-1.13,4.39-5.22,1.65v-16.5Z" fill="#7a160f"></path><path d="M295.47,182.94v17.55c1.64-.43,2.17-2.46,2.17-2.46V181.09A5.36,5.36,0,0,1,295.47,182.94Z" fill="#630704"></path><path d="M286.37,187.18v18.05s-1.13,4.39-5.22,1.65v-16.5Z" fill="#7a160f"></path><path d="M284.2,190.19v17.55c1.64-.43,2.17-2.46,2.17-2.46V188.34A5.36,5.36,0,0,1,284.2,190.19Z" fill="#630704"></path><path d="M274.05,193.81v18.05s-1.13,4.39-5.22,1.65V197Z" fill="#7a160f"></path><path d="M271.88,196.82v17.55c1.64-.43,2.17-2.46,2.17-2.46V195A5.36,5.36,0,0,1,271.88,196.82Z" fill="#630704"></path><path d="M262.78,200.48v18.05s-1.13,4.39-5.22,1.65v-16.5Z" fill="#7a160f"></path><path d="M260.61,203.5V221c1.64-.43,2.17-2.46,2.17-2.46V201.65A5.36,5.36,0,0,1,260.61,203.5Z" fill="#630704"></path><path d="M188.14,169.65v18.05s1.13,4.39,5.22,1.65v-16.5Z" fill="#7a160f"></path><path d="M190.31,172.67v17.55c-1.64-.43-2.17-2.46-2.17-2.46V170.82A5.36,5.36,0,0,0,190.31,172.67Z" fill="#630704"></path><path d="M198.33,175.75V193.8s1.13,4.39,5.22,1.65V179Z" fill="#7a160f"></path><path d="M200.5,178.76v17.55c-1.64-.43-2.17-2.46-2.17-2.46V176.91A5.36,5.36,0,0,0,200.5,178.76Z" fill="#630704"></path><path d="M209,182.16v18.05s1.13,4.39,5.22,1.65v-16.5Z" fill="#7a160f"></path><path d="M211.15,185.17v17.55c-1.64-.43-2.17-2.46-2.17-2.46V183.32A5.36,5.36,0,0,0,211.15,185.17Z" fill="#630704"></path><path d="M219.81,188v18.05s1.13,4.39,5.22,1.65v-16.5Z" fill="#7a160f"></path><path d="M222,191v17.55c-1.64-.43-2.17-2.46-2.17-2.46V189.17A5.36,5.36,0,0,0,222,191Z" fill="#630704"></path><path d="M231.69,195.17v18.05s1.13,4.39,5.22,1.65v-16.5Z" fill="#7a160f"></path><path d="M233.86,198.18v17.55c-1.64-.43-2.17-2.46-2.17-2.46V196.34A5.36,5.36,0,0,0,233.86,198.18Z" fill="#630704"></path><path d="M242.86,201.62v18.05s1.13,4.39,5.22,1.65v-16.5Z" fill="#7a160f"></path><path d="M245,204.64v17.55c-1.64-.43-2.17-2.46-2.17-2.46V202.79A5.36,5.36,0,0,0,245,204.64Z" fill="#630704"></path><rect x="272.8" y="127.8" width="3.71" height="17.84" rx="1.64" ry="1.64" fill="#ea5343"></rect><path d="M274.21,127.86s-1.58-.66-1.41-2.11,2.15-1.59,1.86-3c0,0,3.43,2.42.44,5.09" fill="#ffc931"></path><path d="M275.44,123.51a2.3,2.3,0,0,1-.27,1.12c-.28.53-.81.87-1.1,1.38a1.55,1.55,0,0,0,.22,1.84h.8A2.8,2.8,0,0,0,275.44,123.51Z" fill="#ff9d33"></path><rect x="254.35" y="119.6" width="3.71" height="17.84" rx="1.64" ry="1.64" fill="#ea5343"></rect><path d="M255.76,119.66s-1.58-.66-1.41-2.11,2.15-1.59,1.86-3c0,0,3.43,2.42.44,5.09" fill="#ffc931"></path><path d="M257,115.31a2.3,2.3,0,0,1-.27,1.12c-.28.53-.81.87-1.1,1.38a1.55,1.55,0,0,0,.22,1.84h.8A2.8,2.8,0,0,0,257,115.31Z" fill="#ff9d33"></path><rect x="235.57" y="131.46" width="3.71" height="17.84" rx="1.64" ry="1.64" fill="#ea5343"></rect><path d="M237,131.52s-1.58-.66-1.41-2.11,2.15-1.59,1.86-3c0,0,3.43,2.42.44,5.09" fill="#ffc931"></path><path d="M238.22,127.17a2.3,2.3,0,0,1-.27,1.12c-.28.53-.81.87-1.1,1.38a1.55,1.55,0,0,0,.22,1.84h.8A2.8,2.8,0,0,0,238.22,127.17Z" fill="#ff9d33"></path><rect x="264.03" y="141.21" width="3.71" height="17.84" rx="1.64" ry="1.64" fill="#ea5343"></rect><path d="M265.43,141.27s-1.58-.66-1.41-2.11,2.15-1.59,1.86-3c0,0,3.43,2.42.44,5.09" fill="#ffc931"></path><path d="M266.67,136.92a2.3,2.3,0,0,1-.27,1.12c-.28.53-.81.87-1.1,1.38a1.55,1.55,0,0,0,.22,1.84h.8A2.8,2.8,0,0,0,266.67,136.92Z" fill="#ff9d33"></path><rect x="245.88" y="142.49" width="3.71" height="17.84" rx="1.64" ry="1.64" fill="#ea5343"></rect><path d="M247.28,142.55s-1.58-.66-1.41-2.11,2.15-1.59,1.86-3c0,0,3.43,2.42.44,5.09" fill="#ffc931"></path><path d="M248.52,138.2a2.3,2.3,0,0,1-.27,1.12c-.28.53-.81.87-1.1,1.38a1.55,1.55,0,0,0,.22,1.84h.8A2.8,2.8,0,0,0,248.52,138.2Z" fill="#ff9d33"></path><path d="M202.84,140.92c.36-.55.83-1,1.43-.9s.75.76.6,1.33a1.76,1.76,0,0,1,1.86.41,1.3,1.3,0,0,1,.13,1.15,2,2,0,0,1,2,1,1.2,1.2,0,0,1-.4,1.41c.31.56.69,1.31.24,1.85-2.11,2.51-2.84,3-4.51,3.83l0,0a8.37,8.37,0,0,1-3.15,2.47.46.46,0,0,1-.48,0,.55.55,0,0,1-.76-.25l-.12.07h0l-.13.07c-.58.31-1-.61-.53-1l.21-.17a.56.56,0,0,1-.28-.47l0,0-.22.18c-.48.4-1.23-.36-.77-.81l.31-.32-.09-.09-.08-.08a2,2,0,0,1-.71.43c-.69.23-1.09-.82-.4-1.05,1.06-.35,1.92-2.79,2.37-3.71.29-.6.57-1.22.82-1.83v-1.58a3.9,3.9,0,0,1,.2-1.88C200.86,139.93,202,140.33,202.84,140.92Z" fill="#ffd5b2"></path><path d="M149.25,135.79c0-.65-.19-1.31-.77-1.5s-1,.27-1.2.83a1.76,1.76,0,0,0-1.81-.59,1.3,1.3,0,0,0-.7.92,2,2,0,0,0-2.23-.12,1.2,1.2,0,0,0-.37,1.42c-.56.32-1.27.77-1.15,1.47.53,3.24.89,4.06,1.91,5.6,0,0,0,0,0,0a8.37,8.37,0,0,0,1.44,3.74.46.46,0,0,0,.43.22.55.55,0,0,0,.78.18l.07.12v0h0l.07.13c.34.56,1.18,0,1-.57l-.1-.25a.56.56,0,0,0,.48-.26h0l.1.27c.21.59,1.24.32,1.08-.3,0-.14-.06-.29-.1-.44l.12,0,.11,0a2,2,0,0,0,.39.73c.47.55,1.36-.15.89-.7-.73-.84-.22-3.38-.14-4.4.06-.67.14-1.33.23-2l.82-1.35a3.9,3.9,0,0,0,.8-1.72C151.45,136,150.24,135.69,149.25,135.79Z" fill="#ffd5b2"></path><path d="M195.21,249.2s4.12-7.33,5.49-8.67,4.12.36,4.9,2.74-1.37,7.84-2.35,9.55-4.35,6.16-4.72,7.49-6.84,0-8.61,0-1.76-9.83-1.76-9.83" fill="#ad2b21"></path><path d="M158.62,188.82l-3.28,30.83s1.16,9.66,9.61,9.36,10-26.41,10-26.41l1.4-16" fill="#855af1"></path><path d="M179.6,188.85s9.79,26.76,12.62,36.38,8.76,25,8.76,25a12,12,0,0,1-15.27,4.49S169,204.15,168.46,204s-9.62-15.3-1.7-19.43S179.6,188.85,179.6,188.85Z" fill="#855af1"></path><path d="M198.17,145.44c-3.71,4.58-11,13.51-13.22,15.4-3,2.57-7.39,1.63-8.65,1.82l-8.81-4.4s-8.9,1-12.15-2c-2.5-2.34-3.51-11-3.84-14.86a17,17,0,0,0-9.7,3.08c.22,3.43,1.05,12.86,3.88,16.53,3.49,4.53,14,10.39,14,10.39l-1.24,16.81c8.93,2.57,21.17.68,21.17.68l9-19c4.65-1.35,14.26-13.33,17.57-19A19.93,19.93,0,0,0,198.17,145.44Z" fill="#68e1fd"></path><path d="M164.17,153.86s-3.92,3.32-3.38,6.13-.33,6.52-2.51,6.85-3.27,1.41-2.83,2.94a3.73,3.73,0,0,1-3.32,2.72c-2.89.44-2.63,4.9-2.59,5.23s12.19,6,20.34,4.25c0,0,.84-3.38,2.91-4.36s1.2-2.51.76-4.14-.87-4.35,1.2-5.39.88-3.84,1.31-4.83,2.18-2.31,2.07-4.82-3-9.53-7-9.73S164.17,153.86,164.17,153.86Z" fill="#ad2b21"></path><path d="M164.17,153.86l6.46-16.47,6.07,16.47S171.43,159.16,164.17,153.86Z" fill="#68e1fd"></path><path d="M144.66,207.45a23,23,0,0,0-2,14.22,3.69,3.69,0,0,0,.34.27C154.54,229,165,229,165,229l-.45-13.9C157.87,212.62,151.39,209.61,144.66,207.45Z" fill="#855af1"></path><path d="M144.66,207.45s3.56,1.34,4.12,6.42-1.26,8.51-5.79,8.06S138.69,208.47,144.66,207.45Z" fill="#5636ba"></path><path d="M140.15,234.9c.12-.05,5.26-1.33,5.42-3.92s-.38-7.06,0-8.76,2.4-1.84,2.4-1.84v-6.07s-3.37-3.52-7.83-3.12" fill="#ad2b21"></path><path d="M137.23,211.93s5.55-2.26,6.9.87-1.22,9.4-1,11.82.84,10.94-4,10.24S135.58,223.05,137.23,211.93Z" fill="#7a160f"></path><path d="M123.43,271.21c5.55,1,11,2.66,16.53,3.66,6.64,1.2,13.42,2.15,20.12,2.94a114.2,114.2,0,0,0,11.6.37l26.85-17.86-12.81-5.6-76.45,12.53.28.38C113.77,269.82,118.8,270.36,123.43,271.21Z" opacity="0.68" fill="url(#linear-gradient-3)"></path></svg>